<svg xmlns="http://www.w3.org/2000/svg" viewBox="0 0 215.1 56.34"><defs><style>.cls-1{fill:#fff;}.cls-2{fill:#00a49b;}</style></defs><g id="Layer_2" data-name="Layer 2"><g id="Layer_1-2" data-name="Layer 1"><path class="cls-1" d="M23.36,36.59a18.38,18.38,0,0,1-4.73.55,18.56,18.56,0,0,1-4.69-.66l-.57-.17-.28-.09-.28-.1c-.38-.12-.75-.28-1.11-.42a18.29,18.29,0,0,1-2.12-1.07c-.34-.19-.67-.42-1-.63l-.48-.34c-.16-.12-.32-.23-.48-.36l-.46-.37-.45-.39-.22-.19-.21-.21-.43-.41A18.2,18.2,0,0,1,3,28a17.33,17.33,0,0,1-1-2.12c-.15-.37-.3-.73-.42-1.11-.06-.19-.13-.37-.18-.56l-.16-.57c-.06-.19-.09-.38-.14-.57S1,22.67.93,22.47c-.06-.39-.14-.77-.18-1.16A20.63,20.63,0,0,1,.59,19,20.46,20.46,0,0,1,.75,16.6c0-.4.12-.78.19-1.17,0-.2.08-.39.12-.58s.08-.38.14-.57l.16-.57c0-.19.12-.37.18-.56.12-.38.27-.74.42-1.11A17.33,17.33,0,0,1,3,9.92,18.2,18.2,0,0,1,5.85,6.17l.43-.41.21-.21.22-.19L7.16,5l.47-.37.47-.35.48-.35c.33-.21.66-.44,1-.63A18.29,18.29,0,0,1,11.7,2.2c.37-.14.73-.3,1.11-.42l.56-.19.57-.17c.19-.06.38-.09.57-.14l.58-.14c.39-.07.78-.15,1.17-.2A18.9,18.9,0,0,1,18.63.76a18.38,18.38,0,0,1,4.73.55,17.31,17.31,0,0,1,2.28.74,17.71,17.71,0,0,1,2.16,1A18.09,18.09,0,0,0,18.63.47,19.46,19.46,0,0,0,16.22.6c-.4,0-.8.12-1.2.18l-.59.13c-.2,0-.4.08-.59.14l-.59.16-.58.18c-.38.12-.76.27-1.14.42A18.25,18.25,0,0,0,9.35,2.87,18.41,18.41,0,0,0,2.51,9.64a18.4,18.4,0,0,0-1.08,2.18c-.15.38-.31.76-.43,1.14-.07.2-.14.39-.19.58l-.17.59c-.06.19-.1.39-.15.59s-.09.4-.13.6c-.07.4-.15.79-.19,1.2A19.71,19.71,0,0,0,0,19a19.71,19.71,0,0,0,.17,2.43c0,.41.12.8.19,1.21,0,.2.09.39.13.59s.09.4.15.59l.17.59c0,.19.12.38.19.58.12.39.28.76.43,1.14a17.67,17.67,0,0,0,1.08,2.18A18.41,18.41,0,0,0,9.35,35a18.25,18.25,0,0,0,2.18,1.06c.38.15.76.3,1.14.42l.58.18.59.16c.19.06.39.09.59.14s.39.09.59.12c.4.07.8.15,1.2.19a19.46,19.46,0,0,0,2.41.13,18.09,18.09,0,0,0,9.17-2.6,19.41,19.41,0,0,1-2.16,1A18.87,18.87,0,0,1,23.36,36.59Z"/><path class="cls-1" d="M23.78,36.06a16.2,16.2,0,0,1-4.23.19,17.46,17.46,0,0,1-4.17-.85s-.5-.17-.51-.18l-.25-.1-.24-.1c-.34-.13-.66-.29-1-.44a17.18,17.18,0,0,1-1.87-1c-.3-.19-.59-.41-.88-.62s-.28-.22-.42-.33l-.42-.34-.41-.35L9,31.52l-.19-.18-.19-.2-.38-.38a18.05,18.05,0,0,1-2.5-3.51,17.43,17.43,0,0,1-.91-2c-.12-.33-.26-.67-.36-1-.05-.17-.11-.34-.16-.51s-.14-.51-.14-.52c0-.18-.08-.36-.12-.53S4,22.36,4,22.18c-.06-.36-.13-.71-.16-1.07a16.73,16.73,0,0,1,0-4.32c0-.36.1-.71.16-1.07,0-.18.07-.35.11-.53s.07-.35.12-.52c0,0,.14-.51.14-.53,0-.17.11-.34.16-.51.1-.35.24-.68.36-1a19.39,19.39,0,0,1,.91-2,17.69,17.69,0,0,1,2.5-3.5l.38-.39.19-.19S9,6.39,9,6.38L9.4,6s.4-.33.41-.35l.42-.34c.14-.11.28-.23.42-.33s.58-.43.88-.61A17.26,17.26,0,0,1,13.4,3.32c.32-.15.64-.31,1-.44l.49-.2s.5-.16.51-.18l.51-.16.51-.15c.34-.08.69-.18,1-.24a16.49,16.49,0,0,1,2.11-.3,16.75,16.75,0,0,1,6.28.68,15.59,15.59,0,0,1,2,.74,16.49,16.49,0,0,0-8.17-1.81,19.22,19.22,0,0,0-2.13.22c-.35.05-.7.14-1.05.21l-.53.13c-.17.05-.35.09-.52.15l-.51.16-.51.18c-.34.12-.67.27-1,.41A17.14,17.14,0,0,0,8.05,6.44a18.85,18.85,0,0,0-2.71,3.69,18,18,0,0,0-1,2.08c-.13.36-.27.71-.39,1.08,0,.18-.12.36-.17.55,0,0-.15.53-.15.55-.06.19-.09.38-.13.56s-.09.38-.12.57c-.07.37-.14.75-.18,1.13a17.71,17.71,0,0,0,0,4.6c0,.38.11.76.18,1.13,0,.19.08.38.12.57s.07.37.13.56c0,0,.15.53.15.55,0,.19.12.37.17.55.12.37.26.73.39,1.08a18,18,0,0,0,1,2.08,18.85,18.85,0,0,0,2.71,3.69,17.52,17.52,0,0,0,3.41,2.71,16.69,16.69,0,0,0,1.92,1c.33.14.66.29,1,.41.17.06.33.13.51.18l.51.16c.17.06.35.1.52.15l.52.13c.36.07.71.16,1.06.21a19.22,19.22,0,0,0,2.13.22,16.49,16.49,0,0,0,8.17-1.81,15.59,15.59,0,0,1-2,.74A16.08,16.08,0,0,1,23.78,36.06Z"/><path class="cls-1" d="M24.19,35.54a15.59,15.59,0,0,1-3.73-.18,16.11,16.11,0,0,1-3.64-1s-.42-.16-.44-.19l-.22-.1-.21-.1c-.29-.14-.57-.3-.85-.45a14.35,14.35,0,0,1-1.61-1c-.27-.18-.51-.39-.77-.59l-.36-.32c-.12-.11-.25-.21-.36-.33s-.34-.3-.35-.33l-.34-.35-.17-.18L11,30.14s-.31-.33-.32-.36a16.72,16.72,0,0,1-2.93-5.05c-.11-.31-.22-.62-.31-.93s-.1-.31-.14-.47-.12-.45-.12-.48-.07-.32-.1-.48S7,22.05,7,21.89c0-.33-.11-.65-.14-1a17.52,17.52,0,0,1,0-3.92c0-.33.09-.65.14-1,0-.16.06-.32.1-.48s.06-.32.1-.48.12-.44.12-.47.09-.32.14-.48c.09-.31.2-.62.31-.93a16.7,16.7,0,0,1,.78-1.79,16.87,16.87,0,0,1,2.15-3.26s.31-.33.32-.36l.16-.18.17-.18.34-.35s.33-.3.35-.33.24-.22.36-.33l.36-.31c.26-.21.5-.41.77-.6A15.32,15.32,0,0,1,15.1,4.43c.28-.15.56-.31.85-.45l.43-.2s.42-.17.44-.19.29-.12.44-.18l.45-.17c.3-.1.6-.21.9-.29.61-.18,1.23-.3,1.85-.42A15.51,15.51,0,0,1,26,2.61a15.33,15.33,0,0,1,1.77.46,14.82,14.82,0,0,0-7.17-1,17,17,0,0,0-1.85.31c-.3.06-.61.15-.91.23s-.3.1-.45.15L17,2.89s-.43.14-.45.16l-.44.18c-.29.12-.58.27-.86.41a15.22,15.22,0,0,0-1.66,1,16.23,16.23,0,0,0-2.94,2.49,18,18,0,0,0-2.45,3.53,18.29,18.29,0,0,0-.89,2c-.12.34-.25.68-.35,1,0,.17-.11.34-.16.51s-.13.48-.13.53-.08.35-.12.53-.08.35-.11.53c-.06.35-.12.71-.16,1.07a16.73,16.73,0,0,0,0,4.32c0,.36.1.72.16,1.07,0,.18.07.36.11.53s.07.36.12.53.12.48.13.53.11.34.16.52c.1.34.23.68.35,1a18.29,18.29,0,0,0,.89,2,18,18,0,0,0,2.45,3.53,16.23,16.23,0,0,0,2.94,2.49,17.13,17.13,0,0,0,1.66,1c.28.13.57.28.86.4l.44.18S17,35,17,35s.3.1.45.15l.45.14c.3.09.61.18.91.24.61.14,1.23.23,1.85.31a14.82,14.82,0,0,0,7.17-1,15.33,15.33,0,0,1-1.77.46A16.27,16.27,0,0,1,24.19,35.54Z"/><path class="cls-1" d="M24.61,35a15.76,15.76,0,0,1-3.24-.53,16.05,16.05,0,0,1-3.11-1.25s-.35-.16-.38-.2l-.18-.11s-.17-.09-.18-.11c-.25-.14-.48-.3-.72-.45-.47-.33-.93-.67-1.36-1l-.65-.58-.3-.31a2.91,2.91,0,0,1-.3-.31s-.28-.27-.3-.31l-.28-.33s-.13-.15-.14-.17l-.14-.17s-.25-.29-.27-.34a16.23,16.23,0,0,1-1.8-3,15.53,15.53,0,0,1-.65-1.64c-.09-.28-.18-.55-.26-.84s-.08-.28-.11-.43l-.1-.43L10.05,22c0-.14-.05-.29-.08-.43,0-.3-.09-.59-.11-.88A17.5,17.5,0,0,1,9.76,19a17.5,17.5,0,0,1,.1-1.77c0-.29.07-.58.11-.87s.06-.29.08-.44l.09-.43.1-.43c0-.15.08-.29.11-.43s.17-.56.26-.84a15.53,15.53,0,0,1,.65-1.64,16.23,16.23,0,0,1,1.8-3s.25-.29.27-.34l.14-.17s.13-.14.14-.17l.28-.33s.27-.27.3-.31a2.91,2.91,0,0,1,.3-.31c.1-.11.2-.21.31-.31l.64-.58c.43-.37.89-.71,1.36-1,.24-.15.47-.31.72-.45l.37-.22s.34-.16.37-.2l.38-.2L19,4.29c.25-.11.51-.23.77-.33a15.5,15.5,0,0,1,1.58-.54,15.11,15.11,0,0,1,4.85-.53,13.63,13.63,0,0,1,1.58.18,13.61,13.61,0,0,0-6.17-.22,12.27,12.27,0,0,0-1.56.39c-.26.07-.52.17-.78.26l-.38.15-.38.16s-.34.13-.37.16l-.37.19c-.25.12-.49.25-.73.39a16,16,0,0,0-1.4.91,15.62,15.62,0,0,0-2.47,2.27,17.32,17.32,0,0,0-3,5.25c-.11.32-.22.64-.32,1l-.13.49c0,.07-.11.43-.12.49a4.48,4.48,0,0,0-.11.5c0,.17-.07.33-.1.5,0,.33-.11.67-.14,1a19.74,19.74,0,0,0-.12,2,19.57,19.57,0,0,0,.12,2c0,.34.09.67.14,1,0,.17.07.34.1.5a4.48,4.48,0,0,0,.11.5c0,.07.1.42.12.49s.09.33.13.49c.1.33.21.64.32,1a17.32,17.32,0,0,0,3,5.25,15.16,15.16,0,0,0,2.47,2.27,16,16,0,0,0,1.4.91c.24.14.48.27.73.39l.37.19s.34.13.37.16l.38.16c.13,0,.25.11.38.15l.77.26c.52.16,1,.28,1.57.39a13.61,13.61,0,0,0,6.17-.22,13.89,13.89,0,0,1-1.58.18A14.41,14.41,0,0,1,24.61,35Z"/><path class="cls-1" d="M25,34.48a14.84,14.84,0,0,1-2.74-.89,16,16,0,0,1-2.58-1.44s-.27-.16-.31-.22l-.15-.11a1.43,1.43,0,0,1-.15-.11l-.59-.47a13.41,13.41,0,0,1-1.11-1c-.18-.18-.35-.37-.52-.56a3.47,3.47,0,0,1-.25-.29l-.25-.29c0-.06-.21-.25-.24-.31l-.23-.31s-.1-.12-.11-.15-.1-.13-.11-.16-.19-.26-.22-.32A16,16,0,0,1,14,25.07a15.07,15.07,0,0,1-.52-1.47c-.08-.25-.15-.5-.21-.76l-.09-.38c0-.06-.07-.32-.08-.38s0-.26-.07-.39S13,21.43,13,21.3s-.07-.52-.1-.78c-.05-.52-.07-1-.07-1.57s0-1.05.07-1.57c0-.26.06-.52.1-.78s0-.26.06-.39,0-.26.07-.38.07-.32.08-.39l.09-.38c.06-.26.13-.51.21-.76A15.07,15.07,0,0,1,14,12.83a16,16,0,0,1,1.44-2.75c0-.06.2-.26.22-.32s.1-.13.11-.16.1-.12.11-.15l.23-.31c0-.06.21-.25.24-.31l.25-.29a3.47,3.47,0,0,1,.25-.29c.17-.19.34-.38.52-.56a13.41,13.41,0,0,1,1.11-1l.59-.47.3-.23s.27-.16.31-.21.21-.14.31-.21l.31-.2L21,5c.43-.24.87-.45,1.32-.65A15.14,15.14,0,0,1,25,3.41c.46-.1.93-.18,1.39-.24a12.81,12.81,0,0,1,1.38-.1,13.23,13.23,0,0,0-5.17.57,12.39,12.39,0,0,0-1.28.48c-.21.08-.42.19-.63.28l-.31.16-.31.16s-.27.14-.31.18l-.3.18-.59.38a13.57,13.57,0,0,0-1.13.87,13.92,13.92,0,0,0-2,2.05,17,17,0,0,0-1.93,3.22c-.27.58-.49,1.16-.7,1.76-.09.3-.19.6-.27.91l-.12.46-.11.46-.09.46c0,.16-.06.31-.08.47s-.1.62-.13.94c-.07.63-.1,1.26-.11,1.89s0,1.27.11,1.89c0,.32.08.63.13.94,0,.16,0,.31.08.47l.09.46.11.47.12.45c.08.31.18.61.27.91a17.9,17.9,0,0,0,.7,1.76,17,17,0,0,0,1.93,3.22,14.51,14.51,0,0,0,2,2.06,13.45,13.45,0,0,0,1.13.86l.59.38.3.18s.27.14.31.17l.31.17a3,3,0,0,0,.31.15c.2.1.41.2.63.29.42.18.85.34,1.28.48a13.21,13.21,0,0,0,5.17.57c-.46,0-.92,0-1.38-.1A13.71,13.71,0,0,1,25,34.48Z"/><path class="cls-1" d="M25.44,34a17.86,17.86,0,0,1-2.25-1.26,17.76,17.76,0,0,1-2.06-1.63c0-.07-.19-.16-.24-.23l-.11-.12a1.31,1.31,0,0,1-.12-.11l-.46-.48c-.3-.33-.59-.67-.86-1l-.4-.54-.19-.28c-.07-.09-.13-.19-.19-.28s-.15-.21-.18-.29l-.18-.29s-.07-.11-.08-.14L18,27.14c0-.08-.13-.22-.16-.3a16.81,16.81,0,0,1-1.1-2.49q-.21-.64-.39-1.32c-.05-.22-.11-.44-.15-.66s-.05-.23-.07-.34-.05-.26-.06-.34,0-.23-.05-.34,0-.23-.05-.34-.05-.45-.07-.68c0-.46,0-.92-.06-1.38s0-.92.06-1.37c0-.23,0-.46.07-.69s0-.22.05-.34,0-.22.05-.34,0-.25.06-.34,0-.22.07-.33.1-.45.15-.67c.12-.44.24-.88.39-1.31a16.92,16.92,0,0,1,1.1-2.5c0-.08.13-.22.16-.3l.09-.15s.06-.1.08-.14l.18-.29c0-.08.14-.21.18-.29s.12-.19.19-.28l.19-.28.4-.54c.27-.35.56-.69.86-1l.46-.48.24-.23c.05-.07.19-.17.24-.23l.24-.23.25-.21q.26-.22.51-.42c.34-.27.7-.53,1.06-.77a16,16,0,0,1,2.24-1.26c.39-.18.78-.34,1.17-.49s.8-.27,1.19-.38a13.76,13.76,0,0,0-4.17,1.36c-.34.18-.67.36-1,.57-.16.09-.33.2-.49.31l-.24.16-.23.17c-.05.05-.19.13-.24.18L21.2,6c-.16.12-.31.25-.46.38s-.59.52-.87.81A15.14,15.14,0,0,0,18.32,9a17.92,17.92,0,0,0-1.66,3.08c-.23.53-.42,1.09-.6,1.65-.08.28-.16.56-.23.84s-.08.29-.11.43-.07.32-.09.43-.05.29-.08.43-.05.29-.07.44-.08.58-.11.87c-.06.59-.08,1.17-.09,1.76s0,1.17.09,1.76c0,.29.07.58.11.87s0,.29.07.44,0,.29.08.43.07.32.09.43.07.29.11.43.15.56.23.84a16.44,16.44,0,0,0,.6,1.66,17.47,17.47,0,0,0,1.66,3.07,15.14,15.14,0,0,0,1.55,1.83,11,11,0,0,0,.87.81c.15.13.3.26.46.38l.23.18c0,.05.19.13.23.18l.24.16.24.17.49.31a9.81,9.81,0,0,0,1,.56,13.43,13.43,0,0,0,4.17,1.37c-.4-.11-.79-.24-1.19-.39S25.83,34.14,25.44,34Z"/><path class="cls-1" d="M27.8,3.07a17.74,17.74,0,0,0-6.91,6.6A18.11,18.11,0,0,0,19,14.13,18.67,18.67,0,0,0,18.34,19,18.24,18.24,0,0,0,19,23.77a18,18,0,0,0,1.9,4.47,17.78,17.78,0,0,0,6.91,6.59A19.18,19.18,0,0,1,21.29,28a18.53,18.53,0,0,1,0-18.1A19.18,19.18,0,0,1,27.8,3.07Z"/><path class="cls-1" d="M55.65,35.28c0-.41-.13-.81-.2-1.21,0-.2-.09-.39-.13-.59s-.09-.4-.15-.59L55,32.3a5.62,5.62,0,0,0-.19-.58c-.12-.39-.27-.76-.42-1.14A17.73,17.73,0,0,0,53.3,28.4a18.78,18.78,0,0,0-3-3.84,18.66,18.66,0,0,0-6-4c-.38-.15-.76-.3-1.14-.42-.2-.06-.38-.13-.58-.18L42,19.81a5.63,5.63,0,0,0-.59-.14l-.59-.13c-.4-.06-.79-.14-1.2-.18a17.7,17.7,0,0,0-2.41-.13A18.2,18.2,0,0,0,28,21.82a18.68,18.68,0,0,1,2.17-1,18.33,18.33,0,0,1,7-1.28,18.56,18.56,0,0,1,4.69.66l.57.17.29.09.28.1c.37.12.74.27,1.1.42A18.29,18.29,0,0,1,46.23,22c.35.19.67.42,1,.63.17.11.32.23.48.34s.33.23.48.36l.46.37.45.39.22.19.21.2.43.41a18.26,18.26,0,0,1,2.85,3.76,19,19,0,0,1,1,2.12c.14.37.29.73.41,1.11.06.18.13.37.18.56l.16.57c.06.18.09.38.14.57s.1.38.13.58c.06.38.14.77.18,1.16a17.41,17.41,0,0,1,0,4.71c0,.4-.12.78-.18,1.17,0,.19-.09.38-.13.58s-.08.38-.14.57l-.16.57c-.05.19-.12.37-.18.56-.12.38-.27.74-.41,1.11a18.84,18.84,0,0,1-1,2.11A18,18,0,0,1,50,50.49l-.43.41-.21.21-.22.19-.45.39-.46.37-.48.35c-.16.12-.31.24-.48.35-.33.21-.66.43-1,.63a16.77,16.77,0,0,1-2.12,1.06c-.36.15-.73.31-1.1.43l-.57.19-.57.16c-.18.06-.38.1-.57.15l-.58.14c-.39.07-.78.15-1.17.2a18.9,18.9,0,0,1-2.37.18,18.43,18.43,0,0,1-4.73-.55,18.22,18.22,0,0,1-2.27-.74,17.17,17.17,0,0,1-2.17-1,18.11,18.11,0,0,0,9.17,2.6,17.71,17.71,0,0,0,2.41-.14,12,12,0,0,0,1.2-.18c.2,0,.4-.08.59-.12s.4-.08.59-.14l.59-.16c.2-.05.39-.12.58-.18.39-.12.76-.27,1.14-.42a18.66,18.66,0,0,0,6-4,18.78,18.78,0,0,0,3-3.84,18.47,18.47,0,0,0,1.09-2.18c.15-.38.3-.76.42-1.14.07-.2.14-.39.19-.58l.17-.59c.06-.19.1-.39.15-.59s.1-.4.13-.6c.07-.4.15-.8.2-1.2a18.53,18.53,0,0,0,0-4.86Z"/><path class="cls-1" d="M36.18,55.4a19.22,19.22,0,0,0,2.13-.22c.36,0,.71-.14,1.06-.21l.52-.13c.17-.05.35-.09.52-.15l.51-.16c.18-.05.34-.12.51-.18.34-.12.67-.27,1-.41a17.7,17.7,0,0,0,5.32-3.73,18.49,18.49,0,0,0,2.71-3.68,18,18,0,0,0,1-2.08c.14-.36.28-.71.39-1.08.06-.18.12-.36.17-.55,0,0,.15-.53.15-.55.06-.19.09-.38.14-.56l.12-.57c.06-.38.13-.75.17-1.14a19.43,19.43,0,0,0,.16-2.29,19.6,19.6,0,0,0-.16-2.3c0-.38-.11-.76-.17-1.14l-.12-.56c-.05-.19-.08-.37-.14-.56,0,0-.14-.53-.15-.55-.05-.19-.11-.37-.17-.55-.11-.37-.25-.73-.39-1.09a18.66,18.66,0,0,0-1-2.07,18.85,18.85,0,0,0-2.71-3.69,17.38,17.38,0,0,0-3.4-2.71,18.52,18.52,0,0,0-1.92-1c-.34-.14-.67-.29-1-.41-.17-.06-.33-.13-.51-.18,0,0-.5-.15-.51-.16-.17-.06-.35-.1-.52-.15s-.35-.1-.52-.13c-.35-.07-.7-.16-1.06-.21A16.9,16.9,0,0,0,36.18,20,16.48,16.48,0,0,0,28,21.82a17.24,17.24,0,0,1,2-.73,15.86,15.86,0,0,1,2.06-.5,17.09,17.09,0,0,1,4.23-.19,17.89,17.89,0,0,1,4.16.86s.5.17.51.18l.25.1s.24.09.25.1c.33.13.65.29,1,.44a17.18,17.18,0,0,1,1.87,1.05c.3.19.59.41.88.62l.42.33a4.78,4.78,0,0,1,.42.34s.4.33.41.35l.39.37.2.18.18.2.38.38A17.76,17.76,0,0,1,51,31.36c.13.34.26.68.36,1,.05.18.12.35.16.52s.14.51.14.52c0,.18.08.35.12.53a5,5,0,0,1,.11.53c.06.36.13.71.17,1.07a18,18,0,0,1,0,4.32c0,.36-.11.71-.17,1.07,0,.17-.07.35-.11.53s-.07.35-.12.52c0,0-.14.51-.14.53s-.11.34-.16.51c-.1.35-.23.68-.36,1a17.43,17.43,0,0,1-.91,2,17.69,17.69,0,0,1-2.5,3.5l-.38.39-.18.19-.2.19-.39.37S46,51,46,51a4.78,4.78,0,0,1-.42.34l-.42.33c-.29.21-.58.42-.88.61a17.26,17.26,0,0,1-1.87,1.06c-.32.15-.64.31-1,.44-.16.06-.32.14-.49.19,0,0-.5.17-.51.18s-.34.11-.51.17l-.51.15c-.34.08-.69.18-1,.24a18.47,18.47,0,0,1-2.11.3A16.64,16.64,0,0,1,32,54.82,16.08,16.08,0,0,1,30,54.33a15.59,15.59,0,0,1-2-.74A16.49,16.49,0,0,0,36.18,55.4Z"/><path class="cls-1" d="M35.18,54.61c.62-.08,1.24-.17,1.85-.31a9.36,9.36,0,0,0,.91-.24l.45-.14c.15-.05.31-.09.45-.15s.43-.14.45-.16l.44-.19c.29-.12.58-.26.86-.4a15.22,15.22,0,0,0,1.66-1,15.9,15.9,0,0,0,2.94-2.49,17.74,17.74,0,0,0,3.34-5.5c.13-.34.25-.68.35-1,0-.17.11-.34.16-.52l.14-.52.12-.53c0-.17.07-.35.1-.53.06-.35.13-.71.16-1.07a16.73,16.73,0,0,0,0-4.32c0-.36-.1-.72-.16-1.08,0-.17-.07-.35-.1-.53l-.12-.52c0-.05-.13-.48-.14-.53s-.1-.34-.16-.52c-.1-.34-.22-.68-.35-1a17.45,17.45,0,0,0-.89-2,17.66,17.66,0,0,0-2.45-3.53,16,16,0,0,0-2.94-2.5,18.16,18.16,0,0,0-1.65-1c-.29-.13-.58-.28-.87-.4s-.29-.13-.44-.18-.43-.14-.45-.16l-.44-.16-.46-.14c-.3-.08-.6-.17-.91-.23a16.6,16.6,0,0,0-1.85-.31,15,15,0,0,0-7.17,1,15,15,0,0,1,1.78-.45,15.79,15.79,0,0,1,1.83-.25,16.1,16.1,0,0,1,3.73.17A16.91,16.91,0,0,1,39,22.35s.41.16.43.19l.22.1.21.1c.29.14.57.3.85.45a15.45,15.45,0,0,1,1.62,1c.26.18.51.39.76.59l.37.32c.12.11.24.21.35.33s.34.3.35.33l.34.35.17.17s.16.17.16.19.31.33.32.36a16.35,16.35,0,0,1,2.15,3.25,16.93,16.93,0,0,1,.79,1.8c.1.31.22.62.3.93s.1.31.14.47.12.45.12.48.07.32.11.48.07.32.09.48c0,.33.11.65.14,1a18.6,18.6,0,0,1,.12,2,18.41,18.41,0,0,1-.12,2c0,.33-.09.65-.14,1s-.06.33-.09.49-.07.32-.11.48-.11.44-.12.47-.09.32-.14.47c-.08.32-.2.63-.3.94a16.77,16.77,0,0,1-.79,1.79,16.07,16.07,0,0,1-2.15,3.25s-.3.34-.32.37l-.16.18-.17.18-.34.35s-.33.3-.35.33l-.36.33-.36.31c-.25.2-.5.41-.76.6a15.45,15.45,0,0,1-1.62,1c-.28.15-.56.31-.85.44s-.28.15-.43.21-.42.17-.44.19-.29.12-.44.18l-.45.17c-.3.1-.6.21-.9.29a17,17,0,0,1-1.85.41,15.59,15.59,0,0,1-3.73.18,16.27,16.27,0,0,1-1.84-.25A15.33,15.33,0,0,1,28,53.59,14.82,14.82,0,0,0,35.18,54.61Z"/><path class="cls-1" d="M34.18,53.81a12.85,12.85,0,0,0,1.57-.39l.77-.26L36.9,53l.38-.16s.35-.14.37-.17.25-.12.37-.18.49-.26.73-.39a16,16,0,0,0,1.4-.91,15.62,15.62,0,0,0,2.47-2.27,17.24,17.24,0,0,0,2.19-3.39,15.27,15.27,0,0,0,.79-1.86c.12-.32.23-.64.32-1s.1-.33.14-.49.1-.43.12-.49.07-.33.1-.5.07-.33.1-.5c0-.33.11-.67.14-1a17.23,17.23,0,0,0,0-4.06c0-.34-.09-.67-.14-1,0-.17-.06-.34-.1-.5s-.06-.34-.1-.5-.11-.43-.12-.49-.1-.33-.14-.49c-.09-.33-.2-.65-.31-1a18,18,0,0,0-.8-1.86,17.46,17.46,0,0,0-2.19-3.38,14.73,14.73,0,0,0-2.47-2.27,14,14,0,0,0-1.4-.91c-.24-.14-.48-.27-.73-.39l-.37-.19s-.34-.14-.37-.17l-.38-.15c-.13-.05-.25-.11-.38-.15s-.51-.19-.77-.26a12.41,12.41,0,0,0-1.57-.39,13.76,13.76,0,0,0-6.17.21c.52-.08,1-.14,1.58-.17a14.41,14.41,0,0,1,1.61,0,15.11,15.11,0,0,1,3.24.53,15.77,15.77,0,0,1,3.12,1.25s.34.16.37.2l.18.11s.17.09.18.11c.25.14.49.3.72.45.47.33.93.67,1.36,1,.23.18.44.38.65.58l.31.3.3.31s.27.28.29.32l.29.33s.13.14.14.17.12.14.13.17.25.29.27.34a16.34,16.34,0,0,1,2.45,4.63c.09.28.18.56.26.85,0,.14.08.28.11.42s.1.39.1.44.06.28.09.43.06.29.08.43c0,.3.09.59.11.88a17.5,17.5,0,0,1,.1,1.77,17.14,17.14,0,0,1-.1,1.76c0,.3-.07.59-.11.88s-.05.29-.08.44,0,.29-.09.43-.09.38-.1.43-.07.28-.11.43-.17.56-.26.84a15.53,15.53,0,0,1-.65,1.64,16.57,16.57,0,0,1-1.8,3s-.25.29-.27.34l-.13.17-.14.16c-.1.11-.19.23-.29.33s-.27.28-.29.32-.2.21-.31.31l-.3.31c-.22.19-.42.39-.65.57a13.59,13.59,0,0,1-1.36,1c-.24.16-.47.32-.72.46l-.36.22s-.35.16-.38.2l-.37.2-.38.18L36,52.7c-.52.21-1.05.38-1.58.54a15.76,15.76,0,0,1-3.24.53,14.41,14.41,0,0,1-1.61,0A13.89,13.89,0,0,1,28,53.59,13.61,13.61,0,0,0,34.18,53.81Z"/><path class="cls-1" d="M33.18,53a12.39,12.39,0,0,0,1.28-.48l.63-.29a3,3,0,0,0,.31-.15l.31-.17s.27-.13.31-.17l.3-.18.59-.38A13.57,13.57,0,0,0,38,50.33a14.5,14.5,0,0,0,2-2A17.21,17.21,0,0,0,42,45.05a18.77,18.77,0,0,0,.7-1.75c.1-.3.19-.6.27-.91,0-.15.09-.3.12-.46l.11-.46.09-.46c0-.16.06-.31.08-.47s.1-.62.13-.94c.07-.63.1-1.26.11-1.89s0-1.27-.11-1.89c0-.32-.08-.63-.12-.94l-.09-.47-.09-.47-.11-.46c0-.15-.08-.3-.12-.46s-.17-.6-.27-.9a15.72,15.72,0,0,0-.7-1.76,17.87,17.87,0,0,0-1.92-3.23,14.5,14.5,0,0,0-2-2.05,13.45,13.45,0,0,0-1.13-.86l-.59-.38-.3-.18s-.27-.14-.31-.18l-.3-.16-.31-.16c-.21-.09-.42-.2-.63-.28a12.55,12.55,0,0,0-1.29-.48A13.39,13.39,0,0,0,28,21.82c.46,0,.92.05,1.39.11a13.52,13.52,0,0,1,1.39.25,14.6,14.6,0,0,1,2.74.89,16.5,16.5,0,0,1,2.59,1.44s.26.16.3.21l.15.12a1.43,1.43,0,0,1,.15.11l.59.47a12,12,0,0,1,1.11,1c.18.18.35.37.53.56l.25.29.24.29c0,.06.21.24.24.3l.23.31s.1.13.11.16.1.13.11.16.19.26.22.32a16,16,0,0,1,1.44,2.75,15.07,15.07,0,0,1,.52,1.47c.08.25.15.5.21.76s.07.25.09.38.07.32.08.38.05.26.07.39.05.26.06.39.08.51.1.78c0,.52.07,1,.07,1.57s0,1-.07,1.57c0,.26-.06.52-.1.78s0,.26-.06.39,0,.25-.07.38-.07.32-.08.39-.06.25-.09.38-.13.5-.2.76c-.16.49-.33,1-.53,1.47a16.34,16.34,0,0,1-1.44,2.75c0,.06-.19.26-.22.32s-.1.13-.11.16-.1.12-.11.15l-.23.31c0,.06-.21.24-.24.3l-.24.3c-.09.1-.17.2-.26.29s-.34.38-.52.56a12,12,0,0,1-1.11,1l-.59.47-.3.23s-.27.16-.31.21a3.37,3.37,0,0,1-.31.21l-.31.2-.64.38c-.43.24-.88.45-1.32.65a15.5,15.5,0,0,1-2.75.9c-.46.1-.92.18-1.39.24s-.92.09-1.38.1A13.23,13.23,0,0,0,33.18,53Z"/><path class="cls-1" d="M33.18,51.66l.49-.31.24-.17.24-.17s.19-.12.23-.17l.23-.18c.16-.12.31-.25.46-.38s.59-.53.87-.81a15.14,15.14,0,0,0,1.55-1.83,17.92,17.92,0,0,0,1.66-3.08,16.26,16.26,0,0,0,.6-1.65c.09-.28.17-.56.24-.85s.07-.28.1-.42.07-.32.09-.43.06-.29.08-.44.05-.29.07-.43c0-.29.08-.58.11-.87a17.44,17.44,0,0,0,.09-1.76A17.14,17.14,0,0,0,40.44,36c0-.29-.07-.58-.11-.87s0-.29-.07-.44,0-.29-.08-.43-.07-.32-.09-.43-.07-.29-.1-.43-.15-.57-.24-.85a16.26,16.26,0,0,0-.6-1.65,17.47,17.47,0,0,0-1.66-3.07,15.24,15.24,0,0,0-1.55-1.84q-.42-.42-.87-.81l-.45-.37-.24-.18s-.18-.13-.23-.18l-.24-.17-.24-.16-.49-.31c-.32-.21-.66-.39-1-.57A14.13,14.13,0,0,0,28,21.82c.4.12.8.25,1.19.4a12,12,0,0,1,1.17.48A17.19,17.19,0,0,1,32.62,24a17.76,17.76,0,0,1,2.06,1.63c0,.07.19.16.24.23l.12.11s.09.09.11.12l.46.48c.3.33.59.67.86,1l.4.54.2.28.18.28c0,.08.15.21.19.29l.17.29.09.14a1.09,1.09,0,0,0,.08.15c0,.07.13.22.17.3A17.87,17.87,0,0,1,39,32.31c.15.43.28.87.39,1.31,0,.23.11.45.15.67s.05.23.07.34.05.26.06.34,0,.22,0,.34,0,.22.05.34,0,.45.07.68q.06.69.06,1.38c0,.46,0,.91-.06,1.37,0,.23,0,.46-.07.69s0,.22-.05.34,0,.22,0,.34-.05.25-.06.33a3.4,3.4,0,0,1-.07.34c0,.23-.09.45-.15.67-.11.44-.24.88-.39,1.31A18,18,0,0,1,38,45.6c0,.08-.14.22-.17.3a1.09,1.09,0,0,0-.08.15l-.09.14-.18.29c0,.08-.14.21-.18.29l-.18.28-.2.27c-.13.19-.26.37-.4.55-.27.35-.56.69-.86,1l-.46.48-.24.23c0,.07-.19.17-.24.23l-.24.22-.25.22c-.17.14-.34.29-.51.42-.34.27-.7.53-1.06.77a17.08,17.08,0,0,1-2.24,1.26q-.59.27-1.17.48c-.4.15-.79.28-1.19.39a14,14,0,0,0,4.17-1.36C32.52,52.05,32.85,51.87,33.18,51.66Z"/><path class="cls-1" d="M34.92,47a18.11,18.11,0,0,0,1.9-4.46,18.2,18.2,0,0,0,0-9.64,17.65,17.65,0,0,0-1.9-4.47A17.88,17.88,0,0,0,28,21.82a19.21,19.21,0,0,1,6.51,6.84,18.53,18.53,0,0,1,0,18.1A19.18,19.18,0,0,1,28,53.59,17.74,17.74,0,0,0,34.92,47Z"/><path class="cls-2" d="M55.55,16.64c0-.4-.12-.8-.18-1.2,0-.2-.09-.39-.13-.59a5.63,5.63,0,0,0-.14-.59l-.16-.59c0-.19-.12-.38-.18-.58-.12-.38-.27-.76-.42-1.14a18.66,18.66,0,0,0-4-6,18.78,18.78,0,0,0-3.84-3,17.67,17.67,0,0,0-2.18-1.08c-.38-.15-.75-.31-1.14-.43-.2-.06-.38-.14-.58-.19L42,1.06c-.19-.06-.39-.1-.59-.15L40.84.78c-.4-.07-.8-.15-1.21-.19a17.45,17.45,0,0,0-4.86,0c-.4,0-.8.12-1.2.19L33,.91c-.2,0-.4.09-.59.15l-.59.17c-.19.05-.38.13-.58.19-.38.12-.76.28-1.14.43a18.4,18.4,0,0,0-2.18,1.08,18.41,18.41,0,0,0-6.77,6.84A18.25,18.25,0,0,0,20.06,12c-.15.38-.3.76-.42,1.14-.06.2-.13.39-.18.58l-.16.59c-.06.19-.09.39-.14.59s-.09.39-.12.59c-.07.4-.15.8-.18,1.2a17.71,17.71,0,0,0-.14,2.41,18.09,18.09,0,0,0,2.6,9.17,17.71,17.71,0,0,1-1-2.16,18.93,18.93,0,0,1-.74-2.28A18.38,18.38,0,0,1,19,19.05a19,19,0,0,1,.66-4.69l.17-.57.09-.28.1-.28c.12-.38.28-.74.42-1.11A18.29,18.29,0,0,1,21.52,10c.19-.34.42-.67.63-1l.35-.48c.11-.16.23-.32.35-.47l.37-.47.39-.45.19-.22L24,6.7l.41-.43a18.2,18.2,0,0,1,3.75-2.85,17.33,17.33,0,0,1,2.12-1c.37-.15.73-.3,1.11-.42.19-.06.37-.13.56-.18l.57-.16c.19-.06.38-.09.57-.14l.58-.12c.39-.07.77-.15,1.17-.19A20.46,20.46,0,0,1,37.2,1a20.63,20.63,0,0,1,2.36.16c.39,0,.77.12,1.16.19.2,0,.39.08.58.12s.38.08.57.14l.57.16c.19.05.38.12.56.18.38.12.74.27,1.11.42a17.33,17.33,0,0,1,2.12,1A18.2,18.2,0,0,1,50,6.27l.41.43.21.21.19.23.39.44.37.47c.13.15.24.31.36.47l.34.48c.21.33.44.66.63,1A18.29,18.29,0,0,1,54,12.12c.14.37.3.73.42,1.11.06.18.14.37.19.56l.17.57c.06.19.1.38.14.57s.1.39.14.58c.07.39.15.78.2,1.17a18.9,18.9,0,0,1,.18,2.37,18,18,0,0,1-.55,4.73,18.87,18.87,0,0,1-.73,2.28,21.29,21.29,0,0,1-1,2.16,18.17,18.17,0,0,0,2.59-9.17A17.7,17.7,0,0,0,55.55,16.64Z"/><path class="cls-2" d="M54.89,20.05a17.09,17.09,0,0,0-.22-2.13c-.05-.35-.13-.7-.21-1.05,0-.18-.09-.35-.13-.53s-.09-.35-.15-.52c0,0-.15-.5-.16-.51-.05-.17-.12-.34-.18-.51-.12-.34-.27-.67-.41-1a16.69,16.69,0,0,0-1-1.92,17.16,17.16,0,0,0-2.71-3.41,18.83,18.83,0,0,0-3.77-2.74c-.4-.22-.81-.42-1.22-.61l-.9-.38c-.37-.13-.73-.27-1.11-.39l-.56-.17L41.59,4,41,3.9l-.57-.11a11.58,11.58,0,0,0-1.16-.17l-.39-.05c-.65-.06-1.3-.08-2-.08a18.43,18.43,0,0,0-2.34.18c-.39.05-.77.13-1.15.2a5.43,5.43,0,0,0-.58.13l-.54.13-.53.16a5.43,5.43,0,0,0-.53.17c-.35.11-.69.25-1,.39a15.91,15.91,0,0,0-2,1,18.44,18.44,0,0,0-3.55,2.65A17.52,17.52,0,0,0,22,11.88a16.69,16.69,0,0,0-1,1.92c-.14.33-.29.66-.41,1-.06.17-.13.34-.18.51,0,0-.15.5-.16.51-.06.17-.1.35-.15.52s-.09.35-.13.53c-.07.35-.16.7-.21,1.05a19.22,19.22,0,0,0-.22,2.13,16.49,16.49,0,0,0,1.81,8.17,15.59,15.59,0,0,1-.74-2,16.08,16.08,0,0,1-.49-2.05A16.64,16.64,0,0,1,19.9,20a17,17,0,0,1,.86-4.17s.16-.5.18-.51S21,15.13,21,15a2.44,2.44,0,0,0,.1-.24c.13-.34.29-.66.44-1A17.26,17.26,0,0,1,22.63,12c.19-.3.4-.59.61-.88l.33-.42.34-.42s.34-.4.35-.41l.37-.39s.18-.19.19-.19A1.7,1.7,0,0,1,25,9.05l.39-.38a17.69,17.69,0,0,1,3.5-2.5,19.39,19.39,0,0,1,2-.91c.34-.12.67-.26,1-.36l.51-.16.53-.14c.17,0,.35-.08.52-.12L34,4.37c.36-.06.71-.13,1.07-.16a16.73,16.73,0,0,1,4.32,0c.36,0,.71.1,1.07.16l.53.11.53.12.52.14.51.16c.35.1.69.24,1,.36a19.39,19.39,0,0,1,2,.91A17.69,17.69,0,0,1,49,8.68l.38.37.2.19s.17.19.18.19.25.26.37.4.34.4.35.4l.34.42c.11.14.23.28.33.42s.43.58.62.89a16.15,16.15,0,0,1,1,1.86c.15.32.31.65.44,1,.06.16.14.33.2.5,0,0,.16.49.18.5.06.17.11.34.16.51s.11.34.15.51c.09.35.18.69.24,1A16.77,16.77,0,0,1,54.51,20a17.11,17.11,0,0,1-.19,4.23,16.12,16.12,0,0,1-.5,2.05,16.56,16.56,0,0,1-.73,2A16.46,16.46,0,0,0,54.89,20.05Z"/><path class="cls-2" d="M54.1,21.05a15.2,15.2,0,0,0-.31-1.85c-.06-.3-.15-.61-.23-.91,0-.15-.1-.3-.14-.45l-.15-.45s-.15-.43-.17-.45-.12-.29-.18-.44-.27-.58-.4-.86a15.3,15.3,0,0,0-1-1.66A16.23,16.23,0,0,0,49.06,11a18,18,0,0,0-3.7-2.51c-.38-.2-.78-.38-1.18-.55l-.87-.34c-.36-.13-.71-.25-1.07-.35-.18,0-.36-.11-.55-.15S41.2,7,41.15,7s-.37-.08-.55-.12L40,6.79c-.37,0-.74-.11-1.11-.14l-.38,0c-.62-.05-1.25-.06-1.87-.05a21.33,21.33,0,0,0-2.25.19c-.37,0-.74.13-1.11.2l-.55.13-.48.12-.48.14-.48.16c-.32.1-.63.22-.94.35a15,15,0,0,0-1.81.86A17,17,0,0,0,25.34,11,16.23,16.23,0,0,0,22.85,14a15.22,15.22,0,0,0-1,1.66c-.14.28-.28.57-.4.86s-.13.29-.19.44-.14.43-.16.45-.1.3-.15.45-.1.3-.14.45c-.08.3-.17.61-.24.91a16.57,16.57,0,0,0-.3,1.85,14.82,14.82,0,0,0,1,7.17,15.33,15.33,0,0,1-.46-1.77,16.27,16.27,0,0,1-.25-1.84,15.59,15.59,0,0,1,.18-3.73,16.11,16.11,0,0,1,1.05-3.64s.16-.42.19-.44l.1-.22a2.12,2.12,0,0,1,.11-.21c.13-.29.29-.57.44-.85a15.32,15.32,0,0,1,1.05-1.61c.19-.27.39-.51.6-.77l.31-.36.33-.36s.3-.34.33-.35l.35-.34.18-.17L26,11.4s.33-.31.36-.32a16.87,16.87,0,0,1,3.26-2.15,16.7,16.7,0,0,1,1.79-.78c.31-.11.62-.22.93-.31l.48-.14.47-.12.48-.1.48-.1c.33,0,.65-.11,1-.14a17.52,17.52,0,0,1,3.92,0c.33,0,.65.09,1,.14l.48.1.48.1.48.12.47.14c.31.09.62.2.93.31a17.79,17.79,0,0,1,1.8.78A16.8,16.8,0,0,1,48,11.08s.33.31.36.32l.18.16.18.17.35.34s.3.34.33.35.22.24.33.36l.32.36c.2.26.41.5.59.77a15.32,15.32,0,0,1,1,1.61c.15.28.31.56.45.85.07.14.14.28.2.43s.17.42.2.44.11.29.17.44.12.3.17.45c.1.3.21.6.29.9.18.61.3,1.23.42,1.85a15.51,15.51,0,0,1-.08,5.57,15.29,15.29,0,0,1-.45,1.77A14.93,14.93,0,0,0,54.1,21.05Z"/><path class="cls-2" d="M53.31,22.05a14.28,14.28,0,0,0-.4-1.56c-.07-.26-.17-.52-.26-.77s-.1-.26-.15-.39L52.35,19s-.14-.34-.17-.37-.12-.25-.19-.37-.25-.49-.39-.73a16,16,0,0,0-.91-1.4,15.16,15.16,0,0,0-2.27-2.47,17.74,17.74,0,0,0-3.63-2.28c-.38-.18-.76-.34-1.15-.49l-.85-.31c-.34-.11-.68-.22-1-.3l-.52-.14L40.71,10l-.53-.1-.53-.09-1.08-.12-.35,0c-.6,0-1.2,0-1.8,0a17.2,17.2,0,0,0-2.15.21c-.36.05-.71.12-1.07.2l-.52.12-.44.11-.43.13-.42.14c-.29.09-.57.2-.85.31a14.78,14.78,0,0,0-1.62.75,16.8,16.8,0,0,0-2.94,2,15.62,15.62,0,0,0-2.27,2.47,16,16,0,0,0-.91,1.4c-.13.24-.27.48-.39.73s-.13.24-.18.37-.14.35-.17.37-.11.26-.16.38l-.15.38c-.09.26-.18.52-.26.77-.16.52-.28,1-.39,1.57a13.61,13.61,0,0,0,.22,6.17,13.63,13.63,0,0,1-.18-1.58,14.41,14.41,0,0,1,0-1.61,15.13,15.13,0,0,1,.54-3.24,15.41,15.41,0,0,1,1.24-3.11s.16-.35.2-.38l.11-.18s.09-.17.11-.18c.14-.25.3-.48.46-.72a13.59,13.59,0,0,1,1-1.36c.18-.22.38-.43.57-.64l.31-.31a2.91,2.91,0,0,1,.31-.3s.27-.28.32-.3l.32-.28s.15-.13.17-.14l.17-.14s.3-.25.34-.27a16.23,16.23,0,0,1,3-1.8c.53-.24,1.08-.46,1.64-.65l.84-.26.43-.11.43-.1.43-.09.44-.07.87-.12a15.71,15.71,0,0,1,3.54,0,8.66,8.66,0,0,1,.87.12l.44.07.43.09.43.1.43.11.84.26c.56.19,1.11.41,1.64.65a16.23,16.23,0,0,1,3,1.8c.05,0,.3.25.34.27l.17.14s.14.13.17.14l.33.28s.27.27.32.3l.31.3.3.31c.19.21.39.42.58.64.37.43.71.89,1,1.36l.46.72.21.37s.17.34.21.37.12.25.19.38.13.25.18.38a7.43,7.43,0,0,1,.33.77,15.5,15.5,0,0,1,.54,1.58,15.11,15.11,0,0,1,.53,4.85c0,.54-.09,1.07-.17,1.58A13.9,13.9,0,0,0,53.31,22.05Z"/><path class="cls-2" d="M52.51,23.05A12.39,12.39,0,0,0,52,21.77c-.08-.21-.18-.42-.28-.63l-.16-.31c-.05-.1-.1-.21-.16-.31s-.14-.27-.18-.31-.12-.2-.18-.3-.25-.39-.38-.59a13.45,13.45,0,0,0-.86-1.13,14.51,14.51,0,0,0-2.06-2,17.43,17.43,0,0,0-3.55-2c-.37-.16-.74-.3-1.12-.44l-.82-.26c-.33-.1-.66-.19-1-.27l-.5-.11c-.1,0-.4-.09-.51-.1l-.51-.08-.51-.07c-.34,0-.68-.08-1-.1l-.34,0c-.58,0-1.15,0-1.73,0a20.08,20.08,0,0,0-2,.23l-1,.2-.5.12-.38.1-.38.12c-.13,0-.25.08-.38.12l-.74.26c-.49.2-1,.41-1.44.65a15.49,15.49,0,0,0-2.63,1.69,14.51,14.51,0,0,0-2.06,2,13.45,13.45,0,0,0-.86,1.13c-.13.2-.26.39-.38.59l-.18.3s-.13.27-.17.31l-.17.31-.15.31c-.1.21-.2.41-.29.63-.18.42-.34.85-.48,1.28a13.23,13.23,0,0,0-.57,5.17,12.83,12.83,0,0,1,.11-1.38,11.38,11.38,0,0,1,.24-1.4,14.84,14.84,0,0,1,.89-2.74A16,16,0,0,1,24,20.12c.05,0,.16-.27.22-.31l.11-.15a1.43,1.43,0,0,1,.11-.15c.15-.2.31-.4.47-.59.33-.38.66-.76,1-1.11.18-.18.37-.35.56-.52a3.47,3.47,0,0,1,.29-.25,3.61,3.61,0,0,1,.3-.25c.06,0,.24-.21.3-.24l.31-.23s.12-.1.15-.11.13-.1.16-.11.26-.19.32-.22a16,16,0,0,1,2.75-1.44,15.07,15.07,0,0,1,1.47-.52c.25-.07.5-.15.76-.21l.38-.09.38-.08.39-.07.39-.06q.39-.06.78-.09a15.45,15.45,0,0,1,3.14,0q.39,0,.78.09l.39.06.39.07.38.08.38.09c.26.06.51.13.76.21a15.07,15.07,0,0,1,1.47.52,16,16,0,0,1,2.75,1.44c.06,0,.26.2.32.22s.13.1.16.11.13.1.16.11a3.55,3.55,0,0,0,.31.23c.06,0,.24.21.3.24a3.47,3.47,0,0,1,.29.25,3.47,3.47,0,0,1,.29.25c.19.17.38.34.56.52a13.41,13.41,0,0,1,1,1.11c.16.2.33.39.47.59l.23.3c.05,0,.16.27.21.31s.14.21.21.31l.2.31c.13.22.26.43.38.65.24.43.45.87.65,1.32a15.14,15.14,0,0,1,.9,2.74c.1.46.18.93.24,1.39s.09.93.11,1.38A13.24,13.24,0,0,0,52.51,23.05Z"/><path class="cls-2" d="M51.16,23.05l-.32-.49-.16-.24c-.06-.08-.11-.16-.17-.23s-.13-.19-.18-.24l-.18-.23c-.12-.16-.25-.31-.37-.46-.26-.3-.53-.59-.82-.87a14.21,14.21,0,0,0-1.83-1.54,18.08,18.08,0,0,0-3.49-1.82c-.35-.14-.71-.26-1.08-.38l-.79-.23c-.32-.08-.64-.16-1-.22l-.49-.1-.48-.08-.49-.06-.5-.06-1-.07h-.33c-.55,0-1.1,0-1.65,0a18.42,18.42,0,0,0-2,.25c-.33,0-.65.12-1,.2a4.21,4.21,0,0,0-.48.12c-.11,0-.22.05-.33.09l-.33.09-.32.11-.64.22c-.43.17-.84.34-1.25.54a17,17,0,0,0-2.34,1.36,15.14,15.14,0,0,0-1.83,1.55c-.29.28-.55.57-.81.87-.13.15-.26.3-.38.46l-.18.23c-.05,0-.12.19-.17.23l-.17.24-.17.24c-.1.16-.21.32-.31.49-.2.33-.39.66-.56,1a14,14,0,0,0-1.37,4.17c.11-.4.24-.79.39-1.19s.31-.78.48-1.17a17.08,17.08,0,0,1,1.26-2.24,16.21,16.21,0,0,1,1.63-2.06c.07,0,.16-.2.23-.24l.12-.12a1.31,1.31,0,0,1,.11-.12l.48-.46c.33-.3.67-.59,1-.86l.55-.4.27-.19.28-.19c.08,0,.21-.15.29-.18l.29-.18s.11-.07.14-.08l.15-.09c.08,0,.22-.13.3-.16a17.28,17.28,0,0,1,2.49-1.1c.44-.14.87-.27,1.32-.39.22-.05.44-.11.67-.15l.33-.07.34-.06.34-.05.34,0,.69-.07c.45,0,.91-.05,1.37-.05s.92,0,1.37.05l.69.07.34,0,.34.05.34.06.33.07c.23,0,.45.1.67.15q.67.18,1.32.39a16.81,16.81,0,0,1,2.49,1.1c.08,0,.22.13.3.16l.15.09s.11.07.14.08l.29.18c.08,0,.21.14.29.18l.28.19.28.19.54.4c.35.27.69.56,1,.86l.48.46.24.24c.06.05.16.19.22.24l.23.24.21.25q.23.25.42.51c.28.35.53.7.77,1.06a14.66,14.66,0,0,1,1.26,2.25c.18.38.34.77.49,1.16s.27.8.39,1.19a14.07,14.07,0,0,0-1.37-4.17C51.54,23.71,51.36,23.38,51.16,23.05Z"/><path class="cls-2" d="M46.49,21.31A18,18,0,0,0,42,19.41a18.2,18.2,0,0,0-9.64,0,18.11,18.11,0,0,0-4.46,1.9,17.74,17.74,0,0,0-6.6,6.91,19.35,19.35,0,0,1,6.83-6.51,18.53,18.53,0,0,1,18.1,0,19.38,19.38,0,0,1,6.84,6.51A17.88,17.88,0,0,0,46.49,21.31Z"/><path class="cls-2" d="M35.39,30.71A18.18,18.18,0,0,1,36.12,33a18.44,18.44,0,0,1,.56,4.73,18.65,18.65,0,0,1-.67,4.7l-.17.56c0,.1-.06.19-.09.29l-.1.28c-.12.37-.27.74-.42,1.11a19,19,0,0,1-1.07,2.11c-.19.35-.41.67-.63,1-.11.17-.23.32-.34.49s-.23.32-.36.47l-.37.46-.38.45-.2.22-.2.22-.41.42a18.67,18.67,0,0,1-3.76,2.86,19.82,19.82,0,0,1-2.12,1c-.36.14-.73.29-1.1.41-.19.06-.38.13-.57.18l-.56.16c-.19.06-.39.1-.58.14s-.38.1-.57.13c-.39.06-.78.14-1.17.18a17.41,17.41,0,0,1-4.71,0c-.39,0-.78-.12-1.17-.18-.19,0-.38-.09-.57-.13a5.45,5.45,0,0,1-.58-.14L13.24,55c-.19,0-.37-.12-.56-.18-.37-.12-.74-.27-1.1-.41a18.16,18.16,0,0,1-2.12-1A18,18,0,0,1,5.7,50.49l-.41-.43-.2-.21-.2-.22-.39-.45-.36-.46a4.29,4.29,0,0,1-.36-.48c-.11-.16-.23-.31-.34-.48-.22-.33-.44-.65-.64-1a18.23,18.23,0,0,1-1.06-2.12c-.15-.36-.3-.73-.43-1.1-.06-.19-.13-.37-.18-.57L1,42.41c-.06-.19-.1-.39-.15-.58s-.1-.38-.13-.58c-.08-.39-.16-.78-.2-1.17a18.77,18.77,0,0,1-.19-2.37A18.43,18.43,0,0,1,.84,33a18.22,18.22,0,0,1,.74-2.27,17.17,17.17,0,0,1,1-2.17A18.11,18.11,0,0,0,0,37.71a19.48,19.48,0,0,0,.14,2.41c0,.41.11.8.18,1.2,0,.2.08.4.12.6s.08.39.14.59l.16.58c.05.2.12.39.18.58.12.39.28.76.42,1.14A17.54,17.54,0,0,0,2.4,47a18.34,18.34,0,0,0,6.78,6.84,17.05,17.05,0,0,0,2.18,1.09c.37.15.75.3,1.14.43l.58.19.58.16.59.15c.2,0,.4.1.6.13.4.07.8.15,1.2.2a19.83,19.83,0,0,0,2.43.16,19.57,19.57,0,0,0,2.43-.16c.41,0,.81-.13,1.21-.2.2,0,.39-.09.59-.13l.6-.15.58-.16.58-.19c.39-.13.76-.28,1.14-.43a17.73,17.73,0,0,0,2.18-1.09,18.78,18.78,0,0,0,3.84-3A18.1,18.1,0,0,0,34.56,47a17.54,17.54,0,0,0,1.06-2.18c.15-.38.3-.75.42-1.14.06-.19.13-.38.18-.58l.16-.58c.06-.2.1-.4.14-.59s.1-.4.13-.6c.06-.4.14-.79.18-1.2A19.48,19.48,0,0,0,37,37.71a18.31,18.31,0,0,0-2.6-9.17A17.17,17.17,0,0,1,35.39,30.71Z"/><path class="cls-2" d="M.79,36.71A16.91,16.91,0,0,0,1,38.84c.05.36.13.71.2,1.06,0,.17.09.35.14.52a5,5,0,0,0,.14.52s.15.51.16.52c.05.17.13.33.19.5.12.34.26.68.41,1a16.77,16.77,0,0,0,1,1.92A17,17,0,0,0,6,48.29a17.59,17.59,0,0,0,3.54,2.65,16.68,16.68,0,0,0,2,1c.35.13.69.27,1,.39l.53.17.54.15c.17.06.36.09.54.14l.57.13c.38.07.77.15,1.15.19a18.43,18.43,0,0,0,2.34.18c.65,0,1.31,0,2-.08l.39,0c.39,0,.78-.11,1.16-.17.2,0,.38-.08.58-.12l.57-.13.56-.15.56-.17c.38-.11.74-.25,1.11-.39s.6-.24.9-.38.82-.39,1.22-.61A18.45,18.45,0,0,0,31,48.29a17.38,17.38,0,0,0,2.71-3.4,18.52,18.52,0,0,0,1-1.92c.14-.33.29-.66.41-1,.06-.17.13-.33.18-.5,0,0,.16-.51.17-.52.05-.17.09-.35.14-.52s.1-.35.13-.52c.08-.35.16-.7.21-1.06a16.9,16.9,0,0,0,.22-2.13,16.37,16.37,0,0,0-1.8-8.17,17.29,17.29,0,0,1,.74,2,17.65,17.65,0,0,1,.49,2.06,17.09,17.09,0,0,1,.19,4.23A17.57,17.57,0,0,1,34.93,41s-.17.49-.18.5a2.6,2.6,0,0,1-.1.25s-.09.24-.1.25c-.13.33-.28.65-.43,1a17.26,17.26,0,0,1-1.06,1.87c-.19.3-.41.59-.61.88s-.23.28-.33.43-.23.28-.35.41-.33.4-.35.41l-.37.39-.18.2-.19.18-.39.38a17.47,17.47,0,0,1-3.51,2.5,17.28,17.28,0,0,1-2,.91c-.34.13-.68.26-1,.36a4.48,4.48,0,0,1-.52.16l-.52.14c-.17.05-.35.08-.53.12s-.35.09-.53.12c-.35.05-.71.12-1.07.16a18,18,0,0,1-4.32,0c-.35,0-.71-.11-1.06-.17a4.52,4.52,0,0,1-.53-.11c-.18,0-.36-.07-.53-.12L13.68,52a4.48,4.48,0,0,1-.52-.16c-.35-.1-.68-.23-1-.36a17.43,17.43,0,0,1-2-.91,17.69,17.69,0,0,1-3.5-2.5l-.39-.38-.19-.18s-.18-.2-.19-.2l-.37-.39s-.33-.4-.35-.41-.23-.27-.34-.41l-.33-.43c-.21-.29-.42-.58-.61-.88a17.26,17.26,0,0,1-1.06-1.87c-.15-.32-.31-.64-.43-1-.07-.17-.14-.33-.2-.5,0,0-.17-.5-.18-.51a4.16,4.16,0,0,1-.16-.5c0-.17-.11-.34-.15-.52-.09-.34-.19-.69-.25-1a18.62,18.62,0,0,1-.3-2.1,17.09,17.09,0,0,1,.19-4.23,15.83,15.83,0,0,1,.49-2.06,15.59,15.59,0,0,1,.74-2A16.49,16.49,0,0,0,.79,36.71Z"/><path class="cls-2" d="M1.59,35.71a16.57,16.57,0,0,0,.3,1.85c.07.31.16.61.24.91s.09.3.14.46.09.3.15.44.15.43.17.45.12.29.18.44.26.58.4.87a16.08,16.08,0,0,0,1,1.65,15.9,15.9,0,0,0,2.49,2.94,17.13,17.13,0,0,0,5.05,3.2l.94.35.48.15.48.14c.16,0,.33.08.49.12a4.9,4.9,0,0,0,.55.13c.37.07.73.15,1.11.2a18.64,18.64,0,0,0,2.24.2c.63,0,1.25,0,1.88-.06l.37,0c.37,0,.74-.09,1.12-.15a5.3,5.3,0,0,0,.55-.1l.55-.11c.05,0,.5-.13.55-.13l.54-.16c.36-.1.71-.22,1.07-.34s.58-.22.87-.35.8-.35,1.19-.55a18.55,18.55,0,0,0,3.7-2.51,15.9,15.9,0,0,0,2.49-2.94,16.08,16.08,0,0,0,1-1.65c.14-.29.28-.58.4-.87s.13-.29.18-.44.15-.43.17-.44l.15-.45c0-.15.1-.3.14-.46s.17-.6.23-.91a14.58,14.58,0,0,0,.31-1.85,15,15,0,0,0-1-7.17,15,15,0,0,1,.45,1.78,13.89,13.89,0,0,1,.25,1.83,16.1,16.1,0,0,1-.17,3.73,16.72,16.72,0,0,1-1,3.65s-.17.41-.19.43-.07.15-.11.22-.09.21-.1.22q-.21.42-.45.84A15.45,15.45,0,0,1,32,42.86c-.18.26-.39.51-.59.76L31,44c-.1.12-.21.24-.32.35s-.31.34-.34.36L30,45s-.16.17-.17.17l-.18.16s-.34.31-.37.33a16.75,16.75,0,0,1-3.25,2.14,16.93,16.93,0,0,1-1.8.79c-.31.1-.61.22-.93.31l-.47.13-.48.12c-.16,0-.32.07-.48.11l-.48.09c-.32,0-.65.11-1,.14a18.44,18.44,0,0,1-2,.12,18.41,18.41,0,0,1-2-.12c-.33,0-.65-.09-1-.14l-.48-.09c-.16,0-.33-.06-.48-.11l-.48-.12-.47-.13c-.32-.09-.63-.21-.93-.31a16.08,16.08,0,0,1-1.8-.79,16.46,16.46,0,0,1-3.25-2.14l-.37-.33-.18-.16L6.94,45l-.35-.33s-.31-.34-.34-.36S6,44.11,5.93,44l-.32-.37c-.2-.25-.41-.5-.6-.76a17.24,17.24,0,0,1-1-1.62c-.15-.28-.31-.56-.44-.85s-.15-.28-.21-.43-.16-.42-.19-.44-.12-.29-.18-.44-.12-.29-.17-.44c-.1-.31-.2-.61-.28-.91a15,15,0,0,1-.42-1.85,15.59,15.59,0,0,1-.18-3.73,15.79,15.79,0,0,1,.25-1.83,15,15,0,0,1,.46-1.78A14.93,14.93,0,0,0,1.59,35.71Z"/><path class="cls-2" d="M2.38,34.71c.11.53.23,1,.39,1.57.08.26.17.51.26.77l.15.38c0,.13.1.25.16.38s.14.35.17.37.12.25.18.38.26.48.39.72A16,16,0,0,0,5,40.68a15.23,15.23,0,0,0,2.28,2.47,15.85,15.85,0,0,0,2.93,2,16.09,16.09,0,0,0,1.63.76l.84.31.42.13.44.13.43.11.53.13,1.06.2c.71.11,1.43.17,2.15.21s1.2,0,1.8,0l.36,0c.36,0,.71-.07,1.07-.12.18,0,.36-.06.53-.09s.36-.05.53-.09l.53-.12.52-.13c.35-.09.69-.2,1-.31s.56-.19.84-.3.78-.32,1.15-.5a18.13,18.13,0,0,0,3.63-2.27A15.19,15.19,0,0,0,32,40.68a14,14,0,0,0,.91-1.4c.14-.24.28-.48.4-.72l.18-.37s.14-.35.17-.38.1-.25.15-.38.11-.25.15-.38.19-.51.26-.77a12.41,12.41,0,0,0,.39-1.57,13.76,13.76,0,0,0-.21-6.17c.08.52.14,1.05.17,1.58a14.59,14.59,0,0,1,0,1.62A14.43,14.43,0,0,1,34,35a15.18,15.18,0,0,1-1.25,3.12s-.16.34-.2.37l-.1.18s-.09.17-.11.19l-.46.71a15,15,0,0,1-1,1.37c-.18.22-.38.43-.58.64l-.3.31-.31.3c-.05,0-.28.27-.32.29l-.33.29s-.14.13-.17.14-.14.12-.17.13-.29.25-.34.27a16.34,16.34,0,0,1-4.63,2.45l-.85.26-.42.11c-.05,0-.38.1-.43.1l-.44.09-.43.08c-.29,0-.58.09-.88.11a17.5,17.5,0,0,1-1.77.1c-.59,0-1.18,0-1.76-.09-.3,0-.59-.08-.88-.12l-.43-.08L15,46.2c-.05,0-.38-.09-.43-.1L14.12,46l-.85-.26a16.27,16.27,0,0,1-1.63-.65,16.65,16.65,0,0,1-3-1.8S8.34,43,8.29,43s-.14-.12-.17-.13L8,42.74l-.33-.29s-.28-.27-.32-.29L7,41.86l-.31-.31c-.19-.21-.39-.42-.57-.64a15,15,0,0,1-1-1.37c-.16-.23-.32-.47-.46-.72l-.22-.36s-.16-.35-.2-.38-.13-.25-.19-.37-.13-.25-.19-.38-.23-.52-.33-.78A15.42,15.42,0,0,1,3,35a15.13,15.13,0,0,1-.54-3.24,14.41,14.41,0,0,1,0-1.61,13.89,13.89,0,0,1,.18-1.58A13.61,13.61,0,0,0,2.38,34.71Z"/><path class="cls-2" d="M3.17,33.71c.14.43.3.86.48,1.28.09.22.19.43.29.63l.15.32.17.3s.13.27.17.31l.18.3c.12.2.25.4.39.59.27.39.55.77.86,1.14a15,15,0,0,0,2.05,2,15.74,15.74,0,0,0,2.64,1.68,15.3,15.3,0,0,0,1.43.65l.75.27.37.12.38.11.38.1.5.12c.34.08.68.15,1,.2a17.78,17.78,0,0,0,2.06.23c.57,0,1.15,0,1.72,0l.34,0c.35,0,.69-.06,1-.09l.52-.07.51-.09.5-.09.51-.12c.33-.07.66-.17,1-.26s.55-.17.82-.27.75-.28,1.12-.44a17.94,17.94,0,0,0,3.56-2,14.5,14.5,0,0,0,2.05-2A13.45,13.45,0,0,0,32,37.44c.13-.19.26-.39.38-.59s.13-.2.19-.3.13-.27.17-.3l.16-.31c.05-.11.11-.21.16-.31s.2-.42.28-.63a12.39,12.39,0,0,0,.48-1.28,13.08,13.08,0,0,0,.58-5.18c0,.46,0,.92-.11,1.39s-.14.93-.24,1.39a15.14,15.14,0,0,1-.9,2.74,15,15,0,0,1-1.44,2.59c-.05,0-.16.27-.21.3l-.11.15s-.09.14-.12.15c-.15.2-.31.4-.47.59a13.41,13.41,0,0,1-1,1.11l-.56.53-.3.25L28.6,40c-.06,0-.24.21-.3.24l-.31.23s-.13.1-.16.11a1.53,1.53,0,0,1-.16.11,3.62,3.62,0,0,1-.32.22,16.25,16.25,0,0,1-2.74,1.44c-.48.2-1,.37-1.48.53l-.75.2-.39.09-.38.08-.39.07-.38.07-.78.09c-.53,0-1,.07-1.58.07s-1,0-1.57-.07l-.78-.09-.38-.07-.39-.07L15,43.14l-.38-.09-.75-.2c-.5-.16-1-.33-1.48-.53a16.73,16.73,0,0,1-2.75-1.44c-.06,0-.26-.19-.32-.22a1.53,1.53,0,0,1-.16-.11S9,40.45,9,40.44l-.31-.23c-.06,0-.24-.21-.3-.24l-.3-.24-.29-.25L7.22,39c-.36-.35-.7-.72-1-1.11-.16-.19-.32-.39-.47-.59L5.5,37c-.06,0-.17-.27-.22-.31l-.21-.31c-.06-.1-.14-.2-.2-.31s-.26-.43-.37-.64C4.25,35,4,34.5,3.84,34.06A14.84,14.84,0,0,1,3,31.32a11.38,11.38,0,0,1-.24-1.4,12.83,12.83,0,0,1-.11-1.38A13.21,13.21,0,0,0,3.17,33.71Z"/><path class="cls-2" d="M4.53,33.71c.1.17.21.33.31.49l.17.24.17.24c.05,0,.12.19.17.23l.18.24.38.45q.39.45.81.87a14.5,14.5,0,0,0,4.17,2.91c.41.2.83.38,1.25.54l.64.23.33.1.32.1.33.09.48.12,1,.2a18.72,18.72,0,0,0,2,.24c.55,0,1.1,0,1.65,0h.33c.33,0,.66,0,1-.07l.49-.05.49-.07c.13,0,.36-.06.49-.08l.48-.09,1-.23c.27-.07.53-.14.79-.23s.73-.24,1.09-.38A17.7,17.7,0,0,0,28.41,38a15.24,15.24,0,0,0,1.84-1.55q.42-.42.81-.87l.37-.45.18-.23c.05-.05.13-.19.18-.24l.17-.24.16-.24c.11-.16.22-.32.32-.48.2-.33.38-.67.56-1a14.13,14.13,0,0,0,1.37-4.18c-.12.4-.25.8-.39,1.19s-.31.79-.49,1.17a16.57,16.57,0,0,1-1.26,2.25,16.75,16.75,0,0,1-1.63,2.06c-.06,0-.16.19-.23.24l-.11.12s-.09.09-.12.11-.32.31-.48.46c-.33.3-.66.59-1,.86l-.54.4-.28.2-.28.18-.28.19-.29.17-.15.09s-.11.07-.15.08-.22.14-.29.17a17.35,17.35,0,0,1-2.5,1.09c-.43.15-.87.28-1.31.39l-.67.16-.34.06-.34.06-.34.06-.34,0-.68.07q-.69.06-1.38.06c-.45,0-.91,0-1.37-.06-.23,0-.46,0-.68-.07l-.34,0-.34-.06-.34-.06-.34-.06L14.4,40c-.44-.11-.88-.24-1.31-.39a16.88,16.88,0,0,1-2.5-1.09c-.08,0-.22-.14-.3-.17l-.14-.08L10,38.14,9.71,38l-.28-.19-.29-.18-.27-.2c-.19-.13-.37-.26-.54-.4-.36-.27-.7-.56-1-.86l-.48-.46-.23-.23c-.07-.05-.16-.2-.23-.25L6.14,35c-.08-.08-.15-.17-.22-.25L5.5,34.2c-.27-.34-.52-.69-.77-1.06A17.08,17.08,0,0,1,3.47,30.9Q3.2,30.32,3,29.73c-.15-.4-.28-.79-.39-1.19A14.24,14.24,0,0,0,4,32.71C4.14,33.05,4.32,33.38,4.53,33.71Z"/><path class="cls-2" d="M9.2,35.45a17.73,17.73,0,0,0,4.46,1.9,18.73,18.73,0,0,0,4.82.66,19,19,0,0,0,4.82-.65,18,18,0,0,0,4.47-1.91,17.74,17.74,0,0,0,6.6-6.91,19.18,19.18,0,0,1-6.83,6.51,18.55,18.55,0,0,1-18.11,0A19.18,19.18,0,0,1,2.6,28.54,17.67,17.67,0,0,0,9.2,35.45Z"/><path class="cls-1" d="M73.62,22.87V33.72H67.54V1.93h11.2q7,0,10.07,2.38t3,8a11,11,0,0,1-1.75,6.47,9.18,9.18,0,0,1-5.3,3.42l8,11.56h-7.3L78.34,22.87Zm12-10.6a4.31,4.31,0,0,0-1.55-3.75c-1-.74-2.81-1.12-5.35-1.12H73.62V17.8h5.12q3.81,0,5.35-1.27C85.12,15.69,85.64,14.27,85.64,12.27Z"/><path class="cls-1" d="M102,34.18q-3.85,0-5.66-1.91c-1.2-1.26-1.8-3.25-1.8-6s.72-4.74,2.16-5.89,3.91-1.72,7.43-1.72c1,0,2,.05,3,.15a21.23,21.23,0,0,1,2.63.41V17.14a3.38,3.38,0,0,0-1.21-2.89,6.48,6.48,0,0,0-3.86-.91c-1.58,0-3,.05-4.23.15A29,29,0,0,0,97,14V9.08a30.89,30.89,0,0,1,4.18-.69c1.5-.15,3.29-.23,5.35-.23,3.07,0,5.37.71,6.89,2.11s2.29,3.51,2.29,6.31V33.72h-5.43L110,31.49h-.1a13.9,13.9,0,0,1-3.73,1.95A12.47,12.47,0,0,1,102,34.18Zm2.84-11.26a7.79,7.79,0,0,0-3.76.63,2.64,2.64,0,0,0-1,2.41,3.12,3.12,0,0,0,.84,2.46,4.33,4.33,0,0,0,2.86.74,12.27,12.27,0,0,0,3.12-.44,12.37,12.37,0,0,0,2.86-1.09V23.32q-1.22-.2-2.4-.3C106.57,23,105.74,22.92,104.86,22.92Z"/><path class="cls-1" d="M137.1,0H143V33.72h-5.18l-.35-2.33h-.25a9,9,0,0,1-3.38,2.1,13.39,13.39,0,0,1-4.48.69q-5,0-7.18-3.05c-1.44-2-2.15-5.35-2.15-10s.88-7.86,2.66-9.91,4.71-3.07,8.8-3.07a19.81,19.81,0,0,1,3.06.23A13.47,13.47,0,0,1,137.1,9Zm-4.81,13.44c-2.61,0-4.32.52-5.15,1.57s-1.24,3.09-1.24,6.13.36,4.94,1.09,6,2.22,1.57,4.49,1.57a13.43,13.43,0,0,0,3-.33,9.6,9.6,0,0,0,2.58-1V14.3a9.89,9.89,0,0,0-2.23-.66A14.61,14.61,0,0,0,132.29,13.44Z"/><path class="cls-1" d="M187.81,1.93V33.72h-5.73V11.66l-7.25,15.82h-5l-7.2-15.87V33.72h-5.73V1.93h7.5L172.44,20l8.12-18.1Z"/><path class="cls-1" d="M213.41,27.58v4.77a12.7,12.7,0,0,1-4,1.29,28.88,28.88,0,0,1-5.65.54q-6,0-8.59-3.05t-2.62-10q0-6.73,2.74-9.83c1.83-2.06,4.72-3.1,8.67-3.1s6.53.8,8.12,2.39,2.38,4.31,2.38,8.16c0,.71,0,1.36,0,1.95s-.1,1.41-.2,2.46H198.51c0,2.1.5,3.57,1.39,4.41s2.49,1.27,4.79,1.27a33.67,33.67,0,0,0,4.72-.35A25.07,25.07,0,0,0,213.41,27.58ZM204,13.28c-2.06,0-3.49.41-4.28,1.22s-1.19,2.28-1.19,4.41H209.1V17.85c0-1.73-.42-2.92-1.16-3.58S205.88,13.28,204,13.28Z"/><path class="cls-2" d="M67,40.54a1.44,1.44,0,0,1,.14-.56,4.11,4.11,0,0,0,1.44.16c2,0,5.39-.41,5.9-.41.72,0,1,.59,1.15,1.49-.5,0-1-.08-1.4-.08a18,18,0,0,0-1.91.12,42.58,42.58,0,0,0-1.8,4.61,37.29,37.29,0,0,0-1.54,6,2.32,2.32,0,0,1-1.65-1.23c.32-1.23.85-2.79,1.93-5.75.41-1.12.88-2.44,1.11-3.35a19.07,19.07,0,0,1-2.15.17A1.11,1.11,0,0,1,67,40.54Z"/><path class="cls-2" d="M75.79,44.24a20.65,20.65,0,0,1,3.47-5.86,3,3,0,0,1,1.86.7,19.42,19.42,0,0,0-3.39,4.46,17.6,17.6,0,0,0-1.56,4c1.87-2.39,3.3-3.61,4.2-3.61a2.28,2.28,0,0,1,1.6.93c-1.21,1.32-2.75,4.06-2.75,4.86,0,.19,0,.25.23.25a1.5,1.5,0,0,0,.52-.12c.09.15.1.19.1.24a3.23,3.23,0,0,1-1.43.67.94.94,0,0,1-.79-.92,16.34,16.34,0,0,1,1.66-4.36.09.09,0,0,0-.06-.06,2.25,2.25,0,0,0-.57.35A14,14,0,0,0,75,51c-.06.14-.21.28-.28.28s-.45-.65-.46-.95A19.86,19.86,0,0,1,75.79,44.24Z"/><path class="cls-2" d="M83.85,48.87c0,.12,0,.25,0,.39,0,.5.12,1.17.68,1.17,1.06,0,2.07-1.06,2.69-1.72a2,2,0,0,1,.25.25,5.78,5.78,0,0,1-2.94,2.21,2.22,2.22,0,0,1-2.15-2.25c0-2.42,2.21-5.26,4.15-5.26a2,2,0,0,1,1.26.84C87.64,46.92,86.36,47.87,83.85,48.87Zm.12-.56c1.56-.78,2.73-2,2.8-3.32C85.69,45.13,84.44,46.49,84,48.31Z"/><path class="cls-2" d="M93.51,54.29a.86.86,0,0,0-.5-.65,67.72,67.72,0,0,1,2.09-8.7,7.15,7.15,0,0,0-1.31.08.63.63,0,0,1-.13-.36,11.23,11.23,0,0,1,1.6-.32c.93-3,2.51-4.85,4.11-4.85.24,0,.47,0,.59,0a1.59,1.59,0,0,1,.74-.27.86.86,0,0,1,.45.2,5.67,5.67,0,0,0-.47,1.25,3.13,3.13,0,0,1-.78,1.41c-.12,0-.16-.12-.18-.43a3.63,3.63,0,0,0-.08-.6,1,1,0,0,1-.11-.5,4.53,4.53,0,0,1,.08-.63c-.65,0-1.67,1.73-2.51,4.25l1.24,0a1.86,1.86,0,0,1,.19.87L96.91,45c-1.47,4.41-2.65,8.23-3,9.89A.68.68,0,0,1,93.51,54.29Z"/><path class="cls-2" d="M102.3,49.08a1.84,1.84,0,0,1,.07-.53,15.74,15.74,0,0,0-1.54,1.88,1.37,1.37,0,0,1-.64.46,1.77,1.77,0,0,1-1.6-1.15,5.15,5.15,0,0,1,.12-1.25c.35-1.49,1.4-4,2.63-4.87a2,2,0,0,1,1.31.45,15.31,15.31,0,0,0-1.87,3.4,9.54,9.54,0,0,0-.62,2.3.38.38,0,0,0,.11.27c.29-.12.69-.61,1.5-1.71A10.42,10.42,0,0,0,103.21,46a5.13,5.13,0,0,1,1.15-2,2.26,2.26,0,0,1,1.4.48c-.72,1.72-1.86,3.37-1.86,4.91a3.81,3.81,0,0,0,.33,1.36s-.06.06-.06.06a3.55,3.55,0,0,1-1.4-.58A1.6,1.6,0,0,1,102.3,49.08Z"/><path class="cls-2" d="M107.44,45a2.23,2.23,0,0,1-.2-.87l1.39.09a9.29,9.29,0,0,1,1.77-2.61,3.24,3.24,0,0,1,1.53.53,16.74,16.74,0,0,0-1.45,2.14c.39,0,.8,0,1.21-.06a.61.61,0,0,1,.16.41,5.2,5.2,0,0,1-1.75.29,12.59,12.59,0,0,0-1.56,5c0,.44.18.68.49.72a3.13,3.13,0,0,0,1.54-.63.9.9,0,0,1,.11.22,4.1,4.1,0,0,1-1.61,1.07c-1,0-2.09-.87-2.09-1.56a15.68,15.68,0,0,1,1.3-4.75Z"/><path class="cls-2" d="M115.87,49.08a1.84,1.84,0,0,1,.07-.53,15.74,15.74,0,0,0-1.54,1.88,1.4,1.4,0,0,1-.63.46,1.77,1.77,0,0,1-1.61-1.15,5.15,5.15,0,0,1,.12-1.25c.35-1.49,1.4-4,2.63-4.87a2,2,0,0,1,1.31.45,15.31,15.31,0,0,0-1.87,3.4,9.52,9.52,0,0,0-.61,2.3.38.38,0,0,0,.1.27c.29-.12.69-.61,1.5-1.71A10.42,10.42,0,0,0,116.78,46a5.13,5.13,0,0,1,1.15-2,2.26,2.26,0,0,1,1.4.48c-.72,1.72-1.85,3.37-1.85,4.91a3.9,3.9,0,0,0,.32,1.36s-.06.06-.06.06a3.61,3.61,0,0,1-1.4-.58A1.6,1.6,0,0,1,115.87,49.08Z"/><path class="cls-2" d="M121.61,44.68a3.32,3.32,0,0,1,.66-1.15,3,3,0,0,1,1.48.71,7.22,7.22,0,0,0-1.31,2.62,14.67,14.67,0,0,0,2.54-2.8.45.45,0,0,1,.31-.07.85.85,0,0,1,.67.25,3.81,3.81,0,0,0-.27,1.39,2,2,0,0,0,.19,1,2.88,2.88,0,0,1-.6.81,2.4,2.4,0,0,1-1.16-1.36c-1.86,1.28-2.49,2.33-3.07,5a2.06,2.06,0,0,1-1.2-.8A35,35,0,0,1,121.61,44.68Z"/><path class="cls-2" d="M128.06,48.87c0,.12,0,.25,0,.39,0,.5.11,1.17.67,1.17,1.06,0,2.08-1.06,2.7-1.72a3,3,0,0,1,.25.25,5.8,5.8,0,0,1-2.95,2.21,2.23,2.23,0,0,1-2.15-2.25c0-2.42,2.21-5.26,4.15-5.26a2,2,0,0,1,1.27.84C131.84,46.92,130.56,47.87,128.06,48.87Zm.12-.56c1.56-.78,2.72-2,2.79-3.32C129.9,45.13,128.65,46.49,128.18,48.31Z"/><path class="cls-2" d="M137.25,48.73a6.08,6.08,0,0,1,2.39-4.49,2.68,2.68,0,0,1,1.52-.61,2.66,2.66,0,0,1,.93,1l.26,0c.53,0,.78.44.78,1.39a5.14,5.14,0,0,1-4,5.06A2.16,2.16,0,0,1,137.25,48.73Zm1.39.73c0,.47.2,1,.39,1,1.75-.38,3-2.27,3-4.57a1.76,1.76,0,0,0-.19-1,4.11,4.11,0,0,0-2,1.51A6,6,0,0,0,138.64,49.46Z"/><path class="cls-2" d="M144.58,54.29a.91.91,0,0,0-.5-.65,67.72,67.72,0,0,1,2.09-8.7,7.15,7.15,0,0,0-1.31.08.57.57,0,0,1-.14-.36,11.47,11.47,0,0,1,1.61-.32c.93-3,2.5-4.85,4.11-4.85.23,0,.47,0,.58,0a1.59,1.59,0,0,1,.74-.27.89.89,0,0,1,.46.2,5.21,5.21,0,0,0-.47,1.25,3.23,3.23,0,0,1-.78,1.41c-.12,0-.17-.12-.18-.43a5.06,5.06,0,0,0-.09-.6,1.15,1.15,0,0,1-.1-.5,3.91,3.91,0,0,1,.07-.63c-.65,0-1.66,1.73-2.5,4.25l1.24,0a2.15,2.15,0,0,1,.19.87L148,45a102,102,0,0,0-3,9.89A.68.68,0,0,1,144.58,54.29Z"/><path class="cls-2" d="M159.86,46.22a13,13,0,0,0,2.77,4.8,1.78,1.78,0,0,1-1.3.86c-.85,0-1.53-1.58-2.58-5.6a3,3,0,0,1-.57,0,.82.82,0,0,1-.22-.2,24.87,24.87,0,0,0-2,5.74,2.36,2.36,0,0,1-1.57-1.3c.27-.51.4-.78,2.46-5.65A18.14,18.14,0,0,0,158,41.48a7.17,7.17,0,0,0-2.22,1.14,2.71,2.71,0,0,1-.84-1.49,11.08,11.08,0,0,1,5.31-1.37c2.35,0,3.71,1,3.71,2.72C164,44.35,162.2,45.9,159.86,46.22Zm-1.5-1c2.94,0,5.06-1.17,5.06-2.8,0-1-.71-1.52-2.16-1.52a7.75,7.75,0,0,0-1,.08l.18.28A42.51,42.51,0,0,0,158.36,45.21Z"/><path class="cls-2" d="M170.32,45.16A12.28,12.28,0,0,0,169,49.55c0,.55.12.93.39,1.08a2.25,2.25,0,0,1-1,.26c-.53,0-.8-.35-.8-1.09a7.33,7.33,0,0,1,.56-2.3c-.79,1.8-2.09,3.27-3,3.42-.72,0-1.22-.77-1.22-1.78,0-2.2,2.12-5.2,3.71-5.29a2,2,0,0,1,1.1,1.17c-1.57.25-3.5,2.85-3.5,4.66,0,.21.07.31.2.36.58-.12,1.29-.95,2.35-2.71.41-.69,1-1.8,1.42-2.68C169.65,44.65,170.34,45,170.32,45.16Z"/><path class="cls-2" d="M176.17,44.35a10.39,10.39,0,0,0-2-4.93,2.31,2.31,0,0,1,1.37-1.06,9.83,9.83,0,0,1,2,5.85c0,3.07-2.18,6.84-4.17,7.18a2,2,0,0,1-2.09-2.13c0-2,2-5.17,3.47-5.54A2.37,2.37,0,0,1,176.17,44.35Zm0,.7a1.49,1.49,0,0,0,0-.43c-1.41.6-3.53,3.81-3.53,5.34a.74.74,0,0,0,.66.84C174.7,50.32,176.2,47.34,176.2,45.05Z"/><path class="cls-2" d="M179.08,46.81c.09-.38.52-1.91,1.4-2.35a2.48,2.48,0,0,1,1.37,1,9.52,9.52,0,0,0-1.66,3.34,6.18,6.18,0,0,0-.45,1.61c0,.35,0,.48-.08.48a1.39,1.39,0,0,1-1.08-1.25A18.69,18.69,0,0,1,179.08,46.81ZM181.44,43a.73.73,0,0,1-.18-.48,7.37,7.37,0,0,1,.46-1.93,3.17,3.17,0,0,1,1.78,1,13.34,13.34,0,0,0-1.67,2c-.23,0-.44-.24-.44-.4A1.31,1.31,0,0,1,181.44,43Z"/><path class="cls-2" d="M182.53,48.73a6.06,6.06,0,0,1,2.4-4.49,2.63,2.63,0,0,1,1.51-.61,2.59,2.59,0,0,1,.93,1l.26,0c.54,0,.79.44.79,1.39a5.15,5.15,0,0,1-4,5.06A2.16,2.16,0,0,1,182.53,48.73Zm1.39.73c0,.47.2,1,.39,1,1.75-.38,3-2.27,3-4.57a1.76,1.76,0,0,0-.19-1,4.16,4.16,0,0,0-2,1.51A6,6,0,0,0,183.92,49.46Z"/><path class="cls-2" d="M190.87,45.1a24.58,24.58,0,0,1,3.29-6.72,4,4,0,0,1,1.64.92,20.1,20.1,0,0,0-3.6,6.5,18,18,0,0,0-1.27,5.44,1.49,1.49,0,0,0,0,.43.7.7,0,0,1-.55-.28A1.44,1.44,0,0,0,190,51a2,2,0,0,1-.31-1.31A16.8,16.8,0,0,1,190.87,45.1Z"/><path class="cls-2" d="M193.61,48.73a6.09,6.09,0,0,1,2.4-4.49,2.63,2.63,0,0,1,1.52-.61,2.57,2.57,0,0,1,.92,1l.27,0c.53,0,.78.44.78,1.39a5.14,5.14,0,0,1-4.05,5.06A2.16,2.16,0,0,1,193.61,48.73Zm1.4.73c0,.47.19,1,.38,1,1.75-.38,3-2.27,3-4.57a1.68,1.68,0,0,0-.19-1,4.2,4.2,0,0,0-2,1.51A6,6,0,0,0,195,49.46Z"/><path class="cls-2" d="M198,54.67c.49.42.62.49,1.05.49,2,0,3.74-2.21,4.75-5.95a7.33,7.33,0,0,1-2,1.39,1.82,1.82,0,0,1-1.17-1.87c0-2.29,2.71-5.2,4.8-5.2a1,1,0,0,1,1.15.94.93.93,0,0,0-.42-.09c-1.41,0-4.36,3.63-4.36,5.44,0,.13,0,.14.06.14a5.69,5.69,0,0,0,2.06-1.66,11.09,11.09,0,0,0,2-3.28,2.05,2.05,0,0,1,1.14.35c-.67,1.53-1,2.52-1.33,3.31-1,2.83-1.77,4.61-3.18,6.17A3.64,3.64,0,0,1,200.12,56a2.82,2.82,0,0,1-2.3-1A.48.48,0,0,1,198,54.67Z"/><path class="cls-2" d="M210.35,54.45a4,4,0,0,1-2.84,1.46,2.89,2.89,0,0,1-2.32-1,.39.39,0,0,1,.21-.31c.46.41.6.48,1,.48,2.23,0,4.35-2.72,5.46-7-.5.79-1.58,2.46-2.49,2.78a1.79,1.79,0,0,1-1.62-1.15,4.57,4.57,0,0,1,.13-1.25c.37-1.49,1.42-4,2.64-4.87a2.16,2.16,0,0,1,1.34.45,12.48,12.48,0,0,0-1.91,3.4,10,10,0,0,0-.62,2.3.38.38,0,0,0,.1.27c.35-.06,1-.56,1.71-1.65.92-1.4,1.53-2.77,2.49-4.35a2.32,2.32,0,0,1,1.42.48,33.66,33.66,0,0,0-1.56,3.79A14.13,14.13,0,0,1,210.35,54.45Z"/></g></g></svg>